<svg width="79" height="79" viewBox="0 0 79 79" fill="none" xmlns="http://www.w3.org/2000/svg">
<g clip-path="url(#clip0_181_390)">
<path d="M39.5 79C61.3153 79 79 61.3153 79 39.5C79 17.6848 61.3153 0 39.5 0C17.6848 0 0 17.6848 0 39.5C0 61.3153 17.6848 79 39.5 79Z" fill="#F17933"/>
<path d="M39.5 71.1001C56.9522 71.1001 71.1001 56.9522 71.1001 39.5C71.1001 22.0477 56.9522 7.89991 39.5 7.89991C22.0477 7.89991 7.8999 22.0477 7.8999 39.5C7.8999 56.9522 22.0477 71.1001 39.5 71.1001Z" fill="#FFAB45"/>
<path d="M39.5 63.2001C52.5892 63.2001 63.2002 52.5892 63.2002 39.5C63.2002 26.4107 52.5892 15.7998 39.5 15.7998C26.4107 15.7998 15.7998 26.4107 15.7998 39.5C15.7998 52.5892 26.4107 63.2001 39.5 63.2001Z" fill="#FBDE7D"/>
<path d="M39.5 55.3002C48.2262 55.3002 55.3002 48.2262 55.3002 39.4999C55.3002 30.7737 48.2262 23.6997 39.5 23.6997C30.7737 23.6997 23.6997 30.7737 23.6997 39.4999C23.6997 48.2262 30.7737 55.3002 39.5 55.3002Z" fill="#FFF5DB"/>
<path d="M39.5006 47.4003C43.8635 47.4003 47.4004 43.8634 47.4004 39.5005C47.4004 35.1376 43.8635 31.6007 39.5006 31.6007C35.1377 31.6007 31.6008 35.1376 31.6008 39.5005C31.6008 43.8634 35.1377 47.4003 39.5006 47.4003Z" fill="white"/>
</g>
<defs>
<clipPath id="clip0_181_390">
<rect width="79" height="79" fill="white"/>
</clipPath>
</defs>
</svg>
